<?xml version="1.0" encoding="UTF-8"?>
<svg xmlns="http://www.w3.org/2000/svg" id="Layer_1" data-name="Layer 1" viewBox="0 0 24 24" height="20" width="20">
  <path d="m23.245,13.203L12.414,2.451l-7.671.875L1.452.035.038,1.449l3.325,3.325-.911,7.842,10.686,10.584c.535.533,1.236.8,1.94.8.713,0,1.427-.272,1.973-.819l6.221-6.359c.982-1.003.972-2.626-.025-3.618Zm-1.404,2.22l-6.214,6.352c-.294.296-.788.3-1.08.007L4.551,11.88l.615-5.302,1.909,1.91c-.044.164-.074.333-.074.511,0,1.105.895,2,2,2s2-.895,2-2-.895-2-2-2c-.178,0-.348.031-.512.075l-1.94-1.94,5.138-.586,10.148,10.075c.22.219.223.578.005.801Zm-10.754.076l3.914,3.914,4.414-4.414-3.914-3.914-4.414,4.414Zm3.914,1.086l-1.086-1.086,1.586-1.586,1.086,1.086-1.586,1.586Z" />
</svg>