<?xml version="1.0" encoding="UTF-8"?>
<svg xmlns="http://www.w3.org/2000/svg" id="Layer_1" data-name="Layer 1" viewBox="0 0 24 24" height="20" width="20">
  <path d="m9.436,14h1.564c0,3-.494,4.892-.805,6h-2.086c.139-.45.511-1.721.729-3.127l-1.01-1.114c.685-.62,1.301-1.38,1.307-1.388l.3-.371ZM24,3v19h-6.015c.193-.577.402-1.245.612-2h3.403V7c-.614,0-1.179-.23-1.63-.616-.299-.256-.668-.384-1.037-.384s-.738.128-1.037.384c-.451.386-1.016.616-1.63.616s-1.179-.23-1.63-.616c-.299-.256-.668-.384-1.037-.384s-.738.128-1.037.384c-.451.386-1.016.616-1.63.616s-1.179-.23-1.63-.616c-.299-.256-.668-.384-1.037-.384s-.738.128-1.037.384c-.451.386-1.016.616-1.63.616V3c0-1.654,1.346-3,3-3h12c1.654,0,3,1.346,3,3Zm-2,0c0-.551-.449-1-1-1h-12c-.551,0-1,.449-1,1v1.065c.219-.041.441-.065.667-.065.856,0,1.687.307,2.338.865.104.089.215.135.328.135s.224-.045.328-.135c.652-.558,1.482-.865,2.338-.865s1.687.307,2.338.865c.104.089.215.135.328.135s.224-.045.328-.135c.652-.558,1.482-.865,2.338-.865s1.687.307,2.338.865c.104.089.215.135.328.135v-2Zm-4.001,7.447c.001,6.683-2.552,12.696-2.661,12.949l-.26.604H0v-1.577c.646-1.189,2.502-6.817,2.577-11.938l.007-.454.491-.416c.991-.822,2.429-.822,3.418,0,.608.504,1.48.504,2.087,0,.99-.821,2.428-.821,3.418,0,.608.504,1.48.504,2.087,0,.99-.821,2.428-.821,3.418,0l.474.351.02.481Zm-2.004.583c-.213-.063-.454-.021-.631.125-1.313,1.092-3.326,1.092-4.641,0-.247-.205-.618-.203-.864,0-1.313,1.092-3.326,1.092-4.641,0-.183-.152-.435-.191-.653-.117-.15,4.361-1.355,8.759-2.185,10.963h11.361c.604-1.595,2.147-6.123,2.254-10.971Z" />
</svg>