<?xml version="1.0" encoding="UTF-8"?>
<svg xmlns="http://www.w3.org/2000/svg" id="Layer_1" data-name="Layer 1" viewBox="0 0 24 24" width="20" height="20">
  <path d="m24,22.5v1.5h-2v-1.5c0-.275-.224-.5-.5-.5h-3c-.276,0-.5.225-.5.5v1.5h-4v-1.5c0-.275-.224-.5-.5-.5h-3c-.276,0-.5.225-.5.5v1.5h-4v-1.5c0-.275-.224-.5-.5-.5h-3c-.276,0-.5.225-.5.5v1.5H0v-1.5c0-1.379,1.122-2.5,2.5-2.5h3c1.378,0,2.5,1.121,2.5,2.5,0-1.379,1.122-2.5,2.5-2.5h3c1.378,0,2.5,1.121,2.5,2.5,0-1.379,1.122-2.5,2.5-2.5h3c1.378,0,2.5,1.121,2.5,2.5ZM1.5,16.5c0,1.379,1.121,2.5,2.5,2.5s2.5-1.121,2.5-2.5-1.121-2.5-2.5-2.5-2.5,1.121-2.5,2.5Zm10.5-2.5c-1.381,0-2.5,1.119-2.5,2.5s1.119,2.5,2.5,2.5,2.5-1.119,2.5-2.5-1.119-2.5-2.5-2.5Zm0-9c1.381,0,2.5-1.119,2.5-2.5s-1.119-2.5-2.5-2.5-2.5,1.119-2.5,2.5,1.119,2.5,2.5,2.5Zm5.5,11.5c0,1.381,1.119,2.5,2.5,2.5s2.5-1.119,2.5-2.5-1.119-2.5-2.5-2.5-2.5,1.119-2.5,2.5Zm-9.5-2.063c.439-.85,1.142-1.542,2-1.969v-3.468h4v3.468c.858.426,1.561,1.118,2,1.969v-5.548l7.151-6.13-1.302-1.518-6.719,5.759h-6.26L2.151,1.241l-1.302,1.518,7.151,6.13v5.548Z" />
</svg>